# xmcd
#
# Track frame offsets: 
#        150
#        14717
#        38115
#        63663
#        80845
#        101220
#        113389
#        136544
#        156939
#        176253
#        196184
#        210861
#        225065
#        242259
#        262273
#        285067
#        301937
#        320148
#
# Disc length: 4376 seconds
#
# Revision: 4
# Processed by: cddbd v1.5.2PL0 Copyright (c) Steve Scherf et al.
# Submitted via: ExactAudioCopy v0.99pb4
#
DISCID=e2111612
DTITLE=Gashouse Dave - Deep Blues 9
DYEAR=1999
DGENRE=Blues
TTITLE0=Down On The Farm
TTITLE1=Orange Chicken
TTITLE2=Playing With A Broken Heart
TTITLE3=Another Zone
TTITLE4=Bullet Proof
TTITLE5=Leavin' The Plantation
TTITLE6=Third Nail
TTITLE7=L.A. Times
TTITLE8=Fell Out Of Love
TTITLE9=Goddess Of Hope
TTITLE10=Can't Get There From Here
TTITLE11=Watered Down
TTITLE12=Deep Blues 9
TTITLE13=Nobody Here But You
TTITLE14=Hollywood After Dark
TTITLE15=Farm Aid
TTITLE16=Rent-A-Car Queen
TTITLE17=Army Mule
EXTD=
EXTT0=
EXTT1=
EXTT2=
EXTT3=
EXTT4=
EXTT5=
EXTT6=
EXTT7=
EXTT8=
EXTT9=
EXTT10=
EXTT11=
EXTT12=
EXTT13=
EXTT14=
EXTT15=
EXTT16=
EXTT17=
PLAYORDER=
